<?xml version="1.0" encoding="utf-8"?>
<!-- Generator: Adobe Illustrator 27.2.0, SVG Export Plug-In . SVG Version: 6.00 Build 0)  -->
<svg version="1.1" id="Ebene_1" xmlns="http://www.w3.org/2000/svg" xmlns:xlink="http://www.w3.org/1999/xlink" x="0px" y="0px"
	 viewBox="0 0 36 36" style="enable-background:new 0 0 36 36;" xml:space="preserve">
<style type="text/css">
	.st0{fill:#FFFFFF;}
</style>
<rect width="36" height="36"/>
<path d="M9.3,32.3c0.7-1,1.4-1.9,2.1-2.8c0.1-0.2,0.3-0.3,0.5-0.2c0.4,0.1,0.8,0.2,1.2,0.4c0.1,0,0.2,0.2,0.2,0.2
	c-0.1,0.7-0.3,1.4-0.7,1.9"/>
<path d="M5,17.5c-0.1,0.1-0.2,0.2-0.3,0.3c0,0-0.1,0-0.1,0c0.1,0.9,0.2,1.7,0.3,2.6c0.2,0,0.3,0,0.4,0c-0.1-0.5-0.1-1-0.2-1.5
	c0.3-0.1,0.3,0,0.4,0.2c0.1,0.6,0.2,1.3,0.2,1.9c0,0.2,0.2,0.4,0.4,0.5c0.6,0.3,1.1,0.7,1.3,1.4c0,0.1,0.1,0.2,0.2,0.2
	c0.5,0.1,0.7,0.4,0.9,0.8c0,0.1,0.1,0.2,0.2,0.3c0.1,0.2,0.3,0.3,0.3,0.5c0.1,0.3,0.2,0.7,0.4,1C9.6,26,9.4,26.3,9,26.3
	c-0.1,0-0.2-0.1-0.3-0.2c0.1-0.1,0.1-0.2,0.2-0.2c0.1,0,0.2-0.1,0.4-0.1c-0.2-0.4-0.3-0.7-0.5-1.1C8.4,24.9,8,25,7.6,25.1
	c0.1,0.4,0.1,0.7,0.2,1.1c-0.4,0-0.4-0.3-0.6-0.6c-0.6,0.4-1.3,0.8-1.9,1.2"/>
<path d="M4.6,13c0.3,0.1,0.6,0.1,0.6,0.5c0,0.8,0,1.7,0,2.5c0,0.2-0.1,0.4-0.3,0.4c-0.2,0.1-0.3,0.2-0.2,0.4
	c0.1,0.2-0.1,0.5,0.3,0.5"/>
<path d="M4.5,11.6c0-0.1,0.1-0.2,0.2-0.2c0.1,0,0.2,0.1,0.2,0.2c0.1,0.1,0,0.2,0.1,0.3c0.1,0.2,0.1,0.3-0.1,0.5
	c-0.1,0.2-0.2,0.4-0.4,0.6"/>
<path d="M3.8,14.5c0.3-0.1,0.5-0.3,0.9,0c0-0.3,0.1-0.5,0.1-0.7c0-0.1-0.1-0.1-0.2-0.2"/>
<path d="M3.4,18.6c0.3-0.2,0.6,0,0.7,0.3c0,0.1,0,0.2,0.1,0.3c0.1,0.1,0.2,0.2,0.3,0.3c0,0,0.1,0,0.1-0.1c-0.1-1.2-0.2-2.3-0.3-3.5"
	/>
<path d="M3.6,15.8c0.1,0.7,0.2,1.3,0.3,2c-0.6,0.1-1.1,0.2-1.6,0.3"/>
<path d="M6.5,7.3c0.3,0.1,0.6,0.2,0.9,0.3c0.3,0.1,0.4,0.4,0.3,0.6C7.6,8.4,7.4,8.6,7.2,8.7C6.8,8.9,6.4,9.1,6.1,9.3
	C5.7,9.6,5.3,9.5,4.8,9.4"/>
<path d="M31,6.4c-0.5,0.3-1,0.5-1.6,0.7c-0.1,0-0.3,0-0.4-0.1c-0.1-0.4-0.3-0.7-0.3-1.1c0-0.5,0.4-1,0.7-1.3"/>
<path d="M31,9.5c-0.4-0.3-0.7-0.7-1-1.1c-0.3-0.4-0.2-0.7,0.3-0.9"/>
<path d="M31.6,11.2c0.1,0.9,0.3,1.8,0.4,2.8c0.1,1,0.1,2,0,2.9c-0.1,1.1-0.6,2.1-1,3.1c-0.6,1.5-1.5,2.7-2.7,3.8
	c-1.2,1.1-2.5,2.3-3.7,3.4c-0.5,0.4-1,0.7-1.6,0.9c-2.9,0.8-5.9,0.8-8.8-0.1c-0.7-0.2-1.2-0.5-1.7-1c-0.3-0.4-0.7-0.7-1-1
	c-1.1-1.1-2.2-2.2-3-3.6c-0.1-0.2-0.3-0.5-0.7-0.4c-0.1,0-0.2-0.1-0.3-0.2c-0.2-0.2-0.3-0.4-0.4-0.6c-0.8-1.2-1.2-2.5-1.4-3.9
	c-0.5-2.5,0.2-4.9,0.9-7.3C6.6,9.6,7,9.2,7.6,9.2c0,0,0.1,0,0.1-0.1C8.1,9,8.4,8.7,8.6,8.5c0.4-0.4,0.9-0.8,1.3-1.3
	c1.4-1.4,3-2.4,5-2.9c2.6-0.6,5.3-0.5,7.9,0.1C24,4.7,25.1,5.1,26,5.8c1,0.9,1.9,1.8,2.8,2.7C29,8.8,29.3,9,29.7,9.2
	c0.4,0.1,0.6,0.4,0.7,0.7c0.5,1.8,0.9,3.5,1,5.3c0.1,1.6-0.2,3.1-1.1,4.4c-1.5,2.2-3.2,4.2-5.3,5.8c-0.7,0.5-1.4,0.9-2.2,1.1
	c-2.4,0.6-4.9,0.6-7.3,0.1c-0.8-0.2-1.6-0.4-2.3-0.9c-2-1.6-3.6-3.6-4.7-5.9c-0.5-0.9-0.9-1.9-0.9-3c0-1,0.1-1.9,0.2-2.9
	c0.1-1.1,0.5-2,1.2-2.8c0.6-0.7,1.2-1.3,1.9-1.9C11,9,11,8.8,11.1,8.6c0-0.2,0.1-0.4,0.2-0.6c0.5-0.6,1.1-1.1,1.7-1.5
	c0.8-0.5,1.8-0.8,2.7-0.9c1.6-0.3,3.2-0.3,4.7-0.1c1.1,0.1,2.2,0.4,3.3,0.8c0.8,0.3,1.5,0.8,1.9,1.6c0.1,0,0.2,0,0.3,0
	c0.3,0,0.6,0.3,0.6,0.5c-0.1,0.4,0.2,0.5,0.4,0.6c0.8,0.3,1.6,0.6,2,1.4c0,0,0,0.1,0.1,0.1c0.2,0.1,0.5,0.1,0.7,0.1
	c0.1,0,0.1-0.3,0.2-0.4c0-0.3-0.2-0.3-0.5-0.4c-0.1,0-0.3-0.1-0.4-0.2c-1.1-1.1-2.3-2.2-3.4-3.3c-0.6-0.6-1.3-1-2-1.2
	c-1.9-0.6-3.8-0.8-5.8-0.7c-1.1,0-2.2,0.2-3.3,0.5c-1.9,0.6-3.3,1.8-4.6,3.2C9.8,8.2,9.8,8.3,9.7,8.4c0.2,0.1,0.3,0.2,0.5,0.4
	C10.1,8.8,10,8.8,10,8.9C9.2,9.4,8.4,10,7.6,10.5c-0.4,0.3-0.6,0.5-0.5,1c0,0.3,0,0.7,0,1.1c-0.2-0.1-0.4-0.1-0.5-0.2
	c-0.8,2.3,0,7.8,1.3,8.9c-0.2-0.5-0.4-1-0.4-1.5c0.1,0,0.1,0.1,0.2,0.1c0.2,0.3,0.4,0.6,0.6,1c1,1.8,2.3,3.3,3.9,4.7
	c0.9,0.8,1.9,1.5,3.1,1.8c1.9,0.5,3.8,0.6,5.7,0.3c1.4-0.2,2.7-0.5,3.9-1.4c0.5-0.4,1-0.7,1.4-1.1c2.3-2,4.1-4.2,5-7.1
	c0.1-0.3,0.2-0.7,0.2-1c0.2-1.2,0.1-2.4,0-3.6c-0.1-0.7-0.2-1.5-0.3-2.2c-0.1-0.5,0-0.7,0.5-0.8"/>
<path d="M34.5,20.6c-0.5-0.3-1.1-0.5-1.6-0.7c-0.4-0.1-0.4-0.1-0.3-0.5c0.2-0.7,0.4-1.5,0.6-2.2"/>
<path d="M33.4,22.7c-0.3-0.1-0.6-0.3-1-0.4c-0.4-0.2-0.4-0.2-0.3-0.6c0.1-0.2,0.2-0.4,0.2-0.7c-0.2-0.1-0.3-0.1-0.4-0.2
	c-0.2-0.1-0.3,0-0.4,0.2c-0.1,0.2-0.2,0.5-0.3,0.7c-0.1,0.3-0.3,0.6-0.6,0.8c0-0.2,0-0.4,0.1-0.5c0.3-0.8,0.6-1.6,0.9-2.4
	c0-0.1,0-0.2,0.1-0.3c0-0.1,0.1-0.1,0.2-0.1c0,0.1,0.1,0.1,0.1,0.2c0,0.2,0,0.4-0.1,0.5c-0.1,0.5-0.1,0.5,0.4,0.6
	c0.8,0.3,1.7,0.7,2.5,1"/>
<path d="M32.1,24.9c0.3-0.9,0.2-0.8-0.5-1.3c-0.4-0.3-0.7-0.3-1.1-0.1c-0.4,0.2-0.9,0-1.3,0.4c0-0.4,0.2-0.6,0.6-0.8
	c0.7-0.2,1.4-0.6,1.9,0.1c0,0,0,0,0,0c0.3,0.1,0.6,0.3,0.7,0.7"/>
<path d="M29.4,26.9c-0.5-0.3-1.1-0.5-1.7-0.6c-0.1,0-0.2-0.1-0.2-0.2c-0.1-0.3,0-0.9,0.3-1.1c0.3-0.2,0.7-0.4,1-0.6
	c0.4-0.3,0.8-0.3,1.3-0.3c0.2,0,0.4,0.1,0.5,0.2c0.1,0.2,0.3,0.3,0.5,0.4c0.1,0,0.1,0.2,0.1,0.2C31.1,25,31,25,30.9,25
	c-0.2-0.1-0.4-0.2-0.6-0.3c-0.1,0-0.2-0.1-0.3-0.1c-0.7,0.1-1.3,0.4-1.9,0.6c-0.2,0.1-0.2,0.5-0.1,0.6c0.2,0.1,0.4,0.2,0.7,0.3
	c0.1-0.2,0.1-0.4,0.2-0.6c0.2-0.3,0.4-0.4,0.7-0.3c0.3,0.1,0.7,0.3,1,0.4"/>
<path d="M28.2,28.4c0-0.4-0.3-0.7-0.6-0.8c-0.1,0-0.1-0.2-0.1-0.2c0-0.1,0.1-0.2,0.2-0.2c0.1,0,0.2,0,0.2,0c0.3,0.1,0.6,0.2,0.8,0.4
	"/>
<path d="M26.7,30.2c-0.1-0.2-0.2-0.4-0.4-0.6c0.3-0.1,0.4,0,0.5,0.1"/>
<path d="M26.3,33.6c-0.9-0.9-1.8-1.8-2.2-3.1c-0.2-0.6-0.2-0.6,0.4-0.8c0.4-0.1,0.7-0.3,1.1-0.4c0.1,0,0.2,0,0.3,0.1
	c0.2,0.3,0.4,0.5,0.5,0.8"/>
<path d="M20.8,31.2c0.8-0.6,1.7-0.8,2.7-1.1c0.2-0.1,0.3,0,0.4,0.2c0.1,0.5,0.3,0.9,0.5,1.4"/>
<path d="M17.5,31.3c0.2-0.2,0.4-0.4,0.5-0.7c0.3-0.5,0.6-0.5,0.9,0c0.1,0.1,0.2,0.2,0.3,0.4c0-0.6,0-0.6,0.6-0.7c0.1,0,0.1,0,0.2,0
	c0.2,0,0.3,0,0.4,0.2c0.1,0.2,0.2,0.4,0.3,0.7"/>
<path d="M16.4,31c0.1-0.2,0.2-0.4,0.3-0.6c0-0.1,0.1-0.1,0.2-0.1c0.2,0,0.5,0,0.7,0.1c0.1,0,0.2,0.2,0.2,0.3c0,0.1-0.1,0.3-0.2,0.4"
	/>
<path d="M12.9,31.8c0.2-0.5,0.4-0.9,0.6-1.4c0.1-0.3,0.2-0.4,0.6-0.2c0.8,0.3,1.5,0.6,2.3,0.9"/>
<path d="M19.5,31.8c-0.2-0.4-0.6-0.6-0.9-0.9c0,0-0.2-0.1-0.2,0c-0.3,0.3-0.6,0.6-0.8,0.9"/>
<path d="M9.9,13.8c0,0.1-0.1,0.2-0.1,0.2c-0.6,2.3-0.3,4.4,0.9,6.4c0,0.1,0.1,0.2,0.2,0.2c0.6,0,1.1,0,1.7,0c0-0.1,0-0.2,0-0.2
	c0-0.1,0.1-0.3,0.1-0.4c0.1,0.1,0.2,0.2,0.3,0.4c0.4,1.2,1.2,2.1,2.3,2.7c2.4,1.3,4.8,1,7.1-0.3c0.8-0.5,1.4-1.1,1.7-2
	c0.1-0.2,0.2-0.4,0.3-0.6c0-0.1,0.1-0.1,0.2-0.1c0.1,0,0.1,0.1,0.2,0.2c0,0.1,0,0.3,0,0.4c0.6,0,1.2,0,1.8,0c0.1,0,0.2-0.1,0.2-0.2
	c0.3-0.7,0.5-1.5,0.8-2.2c0.3-0.8,0.4-1.7,0.4-2.6c0-0.7-0.1-1.4-0.2-2c0-0.2-0.1-0.5-0.1-0.7c0,0-0.1,0-0.1,0c0,0.1,0,0.2-0.1,0.4
	c-0.1,0.7-0.4,1.4-0.9,1.9c-0.8,0.7-1.8,1-2.8,1.1c-1.5,0.1-2.8-0.5-3.9-1.4c-1.1-0.9-1.2-2-0.7-3.3c0.5-1.2,1.6-1.8,2.8-2.1
	c0.4-0.1,0.9-0.1,1.4-0.2c0-0.1,0-0.3,0-0.4c-0.3,0-0.5,0-0.8,0c-1.3,0.1-2.6,0.4-3.8,1.2c-0.1,0-0.2,0-0.3,0
	c-0.8-0.5-1.7-0.9-2.7-1c-0.6-0.1-1.3-0.2-2-0.2c0,0.3,0,0.4,0,0.6c0.1,0,0.3,0,0.4,0c0.8,0,1.6,0.2,2.4,0.5
	c0.9,0.5,1.6,1.1,1.6,2.2c0,0.9-0.3,1.7-0.9,2.3c-0.3,0.3-0.7,0.6-1.1,0.9c-1.2,0.7-2.4,1.2-3.8,0.8c-1.2-0.3-2.1-0.8-2.4-2
	C10,14,10,13.9,9.9,13.8z"/>
<path d="M28.5,17.1c0,0-0.1,0-0.1,0c0,0.1-0.1,0.3-0.1,0.4c-0.3,1-0.6,2-0.8,3c-0.1,0.5-0.4,0.9-0.7,1.3c-0.5,0.5-1.1,1-1.6,1.6
	c-1,1-2.2,1.8-3.6,2.2c-1.4,0.3-2.8,0.4-4.2,0.2c-1.6-0.2-3-0.8-4.1-1.9c-0.7-0.6-1.3-1.3-1.9-1.9c-1.1-1.1-1.8-2.5-2.1-4
	C8.8,16,9,14.2,9.8,12.5c0.6-1.4,1.7-2.4,3.1-2.9c0.2-0.1,0.2-0.1,0.2-0.3c0-0.5,0-1,0-1.6c0-0.2,0.1-0.4,0.3-0.4
	c0.9-0.2,1.7-0.5,2.6-0.6c2.7-0.3,5.3,0,8,0.5c0.3,0.1,0.3,0.2,0.3,0.4c0,0.6,0,1.2,0,1.9c0,0.1,0,0.2,0.1,0.3
	c0.1-0.1,0.2-0.1,0.2-0.2c0.2-0.4,0.4-0.8,0.5-1.2c0-0.1,0-0.2,0-0.3c-0.2-0.4-0.5-0.8-1-0.9c-0.8-0.2-1.5-0.5-2.3-0.7
	c-1.7-0.4-3.4-0.4-5.1-0.3c-0.7,0-1.5,0.2-2.2,0.4c-0.9,0.3-1.7,0.7-2.2,1.6c-0.2,0.3-0.5,0.6-0.7,0.9c0,0.1-0.1,0.2,0,0.3
	c0.2,0.2,0.1,0.3-0.1,0.5c-1.2,0.9-2.1,1.9-2.5,3.3c-1,3.4-0.1,6.4,2.2,9c0.7,0.9,1.6,1.6,2.4,2.4c0.8,0.8,1.7,1.2,2.7,1.4
	c1.6,0.3,3.2,0.2,4.9,0c1-0.1,2-0.4,2.8-1.1c1.3-1,2.4-2.3,3.5-3.5c0.1-0.2,0.2-0.4,0.2-0.6c0.1-0.6,0.3-1.2,0.4-1.8
	C28.2,18.4,28.3,17.7,28.5,17.1z"/>
<path d="M23.7,15.5c0.1,0,0.3,0,0.5,0c0.9-0.1,1.8-0.4,2.3-1.2c0.9-1.4,0.8-2.6-0.5-3.6c-0.6-0.5-1.3-0.8-2.1-0.9
	c-1.5-0.2-2.8,0.1-3.8,1.2c-0.9,1-0.9,2.4,0,3.2C21.2,15,22.3,15.5,23.7,15.5z"/>
<path d="M13.4,15.5c1.3,0,2.5-0.5,3.5-1.4c1.3-1.1,1.1-2.7-0.3-3.7c-1.9-1.2-4.7-0.5-5.9,1.5c-0.6,1-0.4,2.2,0.5,2.9
	C11.8,15.4,12.6,15.5,13.4,15.5z"/>
<path d="M25.9,21.9c-0.6,0-1.1,0-1.6,0c-0.1,0-0.2,0.1-0.3,0.2c-1,1-2.2,1.7-3.5,2c-2.6,0.7-4.8,0-6.7-1.8c-0.3-0.3-0.5-0.4-0.9-0.4
	c-0.3,0-0.6,0-0.9,0c0,0,0,0.1,0,0.1c1.4,1.6,3.1,2.7,5.2,3C20.6,25.4,23.5,24.6,25.9,21.9z"/>
<path d="M28.3,20.7c0,0,0.1,0,0.1,0.1c0.1-0.2,0.3-0.4,0.4-0.6c0.2-0.5,0.4-0.9,0.5-1.4c0.6-2.2,0.4-4.3-0.3-6.4
	c-0.4-1.4-1.3-2.4-2.6-3c-0.1-0.1-0.2-0.1-0.3,0.1c-0.1,0.2-0.1,0.3,0.1,0.3c0.8,0.4,1.3,1.1,1.8,1.8c0.6,1,0.8,2,0.9,3.1
	c0.2,1.4,0.2,2.7-0.2,4c-0.1,0.4-0.3,0.9-0.4,1.4C28.4,20.2,28.3,20.5,28.3,20.7z"/>
<path d="M4.8,23.6c0.7,0.2,0.9,0.8,1,1.5c0.3-0.2,0.5-0.4,0.8-0.6c0.2-0.2,0.5-0.4,0.8-0.2c0.4,0.2,0.6,0,0.9,0
	c-0.1-0.2-0.1-0.4-0.2-0.5c0-0.1-0.2-0.1-0.2-0.1c-0.4,0.1-0.4,0.1-0.6-0.3c-0.1-0.3-0.3-0.3-0.5-0.2c-0.3,0.1-0.5,0.2-0.7,0.4
	c-0.6,0.3-0.6,0.3-1-0.3C5,23.1,4.9,23,4.9,22.9c-0.1-0.2,0-0.3,0.2-0.4c0.2-0.1,0.3-0.3,0.6-0.1c0.1,0.2,0.4,0.3,0.5,0.4
	c0,0-0.1,0.1-0.1,0.1c0.3-0.1,0.6-0.2,0.9-0.3c-0.4-0.2-0.8-0.6-1.3-0.5c0-0.1-0.1-0.1-0.1-0.2C4.8,22,3.4,23.2,3,24"/>
<path d="M23.3,7.7c-0.2,0-0.3,0-0.4,0c-1.7,0.2-3.4,0.5-5.1,0.4c-1.2-0.1-2.4-0.2-3.6-0.4c-0.3,0-0.4,0-0.3,0.3
	c3.1,0.6,6.3,0.6,9.4,0C23.3,8,23.3,7.9,23.3,7.7z"/>
<path d="M5.2,25.4c0.3-0.4,0.2-1-0.3-1.3"/>
<path d="M26.5,31.5c-0.3-0.5-0.5-1.1-0.8-1.6c0-0.1-0.1-0.1-0.2-0.1c-0.3,0.1-0.7,0.2-1,0.3c0.5,0.6,0.9,1.2,1.3,1.8"/>
<path d="M11.5,31.8c0.4-0.6,0.8-1.1,1.2-1.7c-0.3-0.1-0.5-0.2-0.8-0.3c-0.1,0-0.2,0-0.2,0.1"/>
<path d="M2.3,21.6c0.9-0.4,1.7-0.9,2.5-1.3c-0.4-0.1-0.2-0.5-0.4-0.7c-0.5,0.3-1.1,0.6-1.6,1"/>
<path d="M6.2,8.6c0.3-0.1,0.5-0.2,0.8-0.3C7,8.3,7.1,8.1,7.1,8c0-0.1-0.1-0.2-0.2-0.2"/>
<path d="M31.2,26.4c-0.4-0.2-0.8-0.4-1.2-0.6c-0.6-0.3-0.7-0.2-0.8,0.5c0,0.1,0,0.3,0.1,0.3"/>
<path d="M3.6,22.3c0.6-0.3,1.2-0.7,1.9-1C5.3,21,5.2,20.9,5,21c-0.6,0.2-1.1,0.4-1.7,0.6"/>
<path d="M23.9,31.5c-0.1-0.2-0.3-0.4-0.4-0.6c-0.1-0.3-0.2-0.4-0.5-0.2c-0.1,0-0.2,0.1-0.3,0.1c-0.1,0-0.1,0.1-0.1,0.1
	c0,0.4,0,0.8,0.1,1.2"/>
<path d="M14.8,31c0-0.1,0-0.2-0.1-0.2c-0.2-0.1-0.5-0.2-0.7-0.3c0,0.4-0.2,0.7-0.6,0.9"/>
<path d="M33.3,21.4c-0.6-0.2-0.6-0.2-0.8,0.4c0.4,0.1,0.8,0.3,1.2,0.4"/>
<path d="M16.3,7.3C16.3,7.3,16.3,7.3,16.3,7.3c1.5,0.2,3,0.2,4.4,0.1c0,0,0-0.1,0-0.1C19.2,7.3,17.8,7.3,16.3,7.3z"/>
<path d="M5.2,26.3c0.7-0.4,1.4-0.9,2.1-1.3c0,0,0-0.1,0-0.1c-0.6,0-1.1,0.5-1.6,0.5"/>
<path d="M17.8,9c0.6,0.4,1.3,0.4,1.8,0C19,9,18.4,9,17.8,9z"/>
<path d="M20.6,31.3c-0.3-0.1-0.6-0.2-0.9-0.3c-0.1,0.3,0.1,0.6,0.4,0.7"/>
<path class="st0" d="M4.8,9.4c0.4,0.2,0.9,0.2,1.3-0.1c0.3-0.2,0.7-0.3,1.1-0.6c0.2-0.1,0.4-0.3,0.5-0.5c0.1-0.3,0-0.5-0.3-0.6
	C7.1,7.5,6.8,7.4,6.5,7.3"/>
<path class="st0" d="M2.2,18c0.5-0.1,1.1-0.2,1.6-0.3c-0.1-0.7-0.2-1.3-0.3-2"/>
<path class="st0" d="M4.1,16c0.1,1.2,0.2,2.3,0.3,3.5c0,0-0.1,0-0.1,0.1c-0.1-0.1-0.2-0.2-0.3-0.3c0-0.1,0-0.2-0.1-0.3
	c0-0.3-0.4-0.5-0.7-0.3"/>
<path class="st0" d="M4.6,13.6c0.1,0.1,0.2,0.1,0.2,0.2c0,0.2-0.1,0.4-0.1,0.7c-0.3-0.3-0.6-0.1-0.9,0"/>
<path class="st0" d="M4.6,13c0.1-0.2,0.2-0.4,0.4-0.6c0.1-0.2,0.2-0.3,0.1-0.5C5,11.9,5,11.7,5,11.7c-0.1-0.1-0.1-0.2-0.2-0.2
	c-0.1,0-0.2,0.1-0.2,0.2"/>
<path class="st0" d="M4.9,17.3c-0.4,0-0.2-0.3-0.3-0.5c-0.1-0.2,0-0.3,0.2-0.4c0.2-0.1,0.3-0.2,0.3-0.4c0-0.8,0-1.7,0-2.5
	c0-0.4-0.2-0.4-0.6-0.5"/>
<path class="st0" d="M5.3,26.7c0.7-0.4,1.3-0.8,1.9-1.2c0.2,0.2,0.2,0.6,0.6,0.6c-0.1-0.4-0.1-0.7-0.2-1.1C8,25,8.4,24.9,8.8,24.7
	c0.2,0.4,0.3,0.7,0.5,1.1c-0.1,0-0.2,0-0.4,0.1c-0.1,0-0.1,0.1-0.2,0.2c0.1,0.1,0.2,0.2,0.3,0.2c0.5,0,0.7-0.3,0.5-0.7
	c-0.1-0.3-0.2-0.7-0.4-1c-0.1-0.2-0.2-0.3-0.3-0.5c-0.1-0.1-0.2-0.2-0.2-0.3C8.4,23.3,8.1,23,7.7,23c-0.1,0-0.2-0.1-0.2-0.2
	c-0.3-0.6-0.8-1-1.3-1.4c-0.2-0.1-0.3-0.3-0.4-0.5c-0.1-0.6-0.1-1.3-0.2-1.9c0-0.2-0.1-0.3-0.4-0.2c0.1,0.5,0.1,1,0.2,1.5
	c-0.1,0-0.2,0-0.4,0c-0.1-0.9-0.2-1.7-0.3-2.6c0,0,0.1,0,0.1,0C4.9,17.7,5,17.6,5,17.5"/>
<path class="st0" d="M12.6,31.8c0.5-0.5,0.6-1.2,0.7-1.9c0-0.1-0.1-0.2-0.2-0.2c-0.4-0.1-0.8-0.2-1.2-0.4c-0.2-0.1-0.4,0-0.5,0.2
	c-0.7,0.9-1.4,1.8-2.1,2.8"/>
<path class="st0" d="M17.6,31.8c0.3-0.3,0.5-0.6,0.8-0.9c0,0,0.2,0,0.2,0c0.3,0.3,0.7,0.5,0.9,0.9"/>
<path class="st0" d="M16.4,31c-0.8-0.3-1.5-0.6-2.3-0.9c-0.4-0.1-0.5-0.1-0.6,0.2c-0.2,0.5-0.4,0.9-0.6,1.4"/>
<path class="st0" d="M17.5,31c0.1,0,0.2-0.2,0.2-0.4c0-0.1-0.1-0.3-0.2-0.3c-0.2-0.1-0.4-0.1-0.7-0.1c-0.1,0-0.2,0.1-0.2,0.1
	c-0.1,0.2-0.2,0.4-0.3,0.6"/>
<path class="st0" d="M20.8,31.2c-0.1-0.2-0.2-0.5-0.3-0.7c-0.1-0.2-0.2-0.3-0.4-0.2c-0.1,0-0.1,0-0.2,0c-0.6,0.1-0.6,0.1-0.6,0.7
	c-0.1-0.1-0.2-0.2-0.3-0.4c-0.3-0.5-0.6-0.5-0.9,0c-0.2,0.2-0.3,0.5-0.5,0.7"/>
<path class="st0" d="M24.3,31.6c-0.2-0.4-0.3-0.9-0.5-1.4C23.8,30,23.7,30,23.4,30c-0.9,0.3-1.9,0.6-2.7,1.1"/>
<path class="st0" d="M26.4,30.2c-0.2-0.3-0.3-0.5-0.5-0.8c0-0.1-0.2-0.1-0.3-0.1c-0.4,0.1-0.7,0.3-1.1,0.4c-0.6,0.2-0.6,0.2-0.4,0.8
	c0.4,1.3,1.3,2.2,2.2,3.1"/>
<path class="st0" d="M26.9,29.7c-0.1-0.1-0.2-0.3-0.5-0.1c0.1,0.2,0.2,0.4,0.4,0.6"/>
<path class="st0" d="M28.7,27.5c-0.2-0.2-0.5-0.2-0.8-0.4c-0.1,0-0.2,0-0.2,0c-0.1,0-0.2,0.1-0.2,0.2c0,0,0.1,0.2,0.1,0.2
	c0.4,0.2,0.6,0.4,0.6,0.8"/>
<path class="st0" d="M30.8,25.6c-0.3-0.1-0.7-0.3-1-0.4c-0.4-0.1-0.6-0.1-0.7,0.3c-0.1,0.2-0.2,0.4-0.2,0.6
	c-0.2-0.1-0.4-0.2-0.7-0.3c-0.2-0.1-0.1-0.5,0.1-0.6c0.6-0.3,1.2-0.6,1.9-0.6c0.1,0,0.2,0.1,0.3,0.1c0.2,0.1,0.4,0.2,0.6,0.3
	c0.1,0,0.2-0.1,0.2-0.1c0-0.1-0.1-0.2-0.1-0.2c-0.2-0.1-0.4-0.2-0.5-0.4c-0.1-0.1-0.3-0.2-0.5-0.2c-0.4,0-0.9,0-1.3,0.3
	c-0.3,0.2-0.7,0.4-1,0.6c-0.3,0.2-0.5,0.8-0.3,1.1c0,0.1,0.2,0.1,0.2,0.2c0.6,0.1,1.1,0.3,1.7,0.6"/>
<path class="st0" d="M32.5,23.9c-0.1-0.4-0.4-0.6-0.7-0.7c0,0,0,0,0,0c-0.6-0.8-1.3-0.4-1.9-0.1c-0.3,0.1-0.5,0.4-0.6,0.8
	c0.4-0.3,0.9-0.2,1.3-0.4c0.4-0.2,0.7-0.1,1.1,0.1c0.8,0.5,0.8,0.5,0.5,1.3"/>
<path class="st0" d="M34.8,21.5c-0.8-0.3-1.7-0.7-2.5-1c-0.4-0.2-0.4-0.2-0.4-0.6c0-0.2,0.1-0.4,0.1-0.5c0-0.1-0.1-0.1-0.1-0.2
	c-0.1,0-0.2,0.1-0.2,0.1c-0.1,0.1-0.1,0.2-0.1,0.3c-0.3,0.8-0.6,1.6-0.9,2.4c-0.1,0.2-0.1,0.3-0.1,0.5c0.3-0.2,0.5-0.5,0.6-0.8
	c0.1-0.2,0.2-0.5,0.3-0.7c0.1-0.2,0.2-0.2,0.4-0.2c0.1,0.1,0.3,0.1,0.4,0.2c-0.1,0.2-0.2,0.4-0.2,0.7c-0.1,0.4-0.1,0.5,0.3,0.6
	c0.3,0.1,0.6,0.3,1,0.4"/>
<path class="st0" d="M33.2,17.2c-0.2,0.7-0.4,1.5-0.6,2.2c-0.1,0.4-0.1,0.4,0.3,0.5c0.6,0.2,1.1,0.5,1.6,0.7"/>
<path class="st0" d="M31.6,10.4c-0.5,0.2-0.6,0.3-0.5,0.8c0.1,0.7,0.2,1.5,0.3,2.2c0.1,1.2,0.2,2.4,0,3.6c-0.1,0.3-0.1,0.7-0.2,1
	c-0.9,2.9-2.7,5.2-5,7.1c-0.5,0.4-0.9,0.8-1.4,1.1c-1.2,0.8-2.5,1.2-3.9,1.4c-1.9,0.2-3.8,0.2-5.7-0.3C14,27.1,13,26.5,12,25.6
	c-1.5-1.4-2.8-3-3.9-4.7c-0.2-0.3-0.4-0.6-0.6-1c0-0.1-0.1-0.1-0.2-0.1c0,0.5,0.3,1,0.4,1.5c-1.3-1.1-2.1-6.6-1.3-8.9
	c0.2,0.1,0.3,0.1,0.5,0.2c0-0.4,0-0.8,0-1.1c-0.1-0.5,0.1-0.8,0.5-1c0.8-0.5,1.6-1,2.4-1.6c0.1,0,0.1-0.1,0.2-0.2
	C10,8.6,9.9,8.5,9.7,8.4c0-0.1,0.1-0.1,0.2-0.2c1.3-1.4,2.7-2.6,4.6-3.2c1.1-0.3,2.2-0.5,3.3-0.5c2-0.1,3.9,0.1,5.8,0.7
	c0.8,0.2,1.5,0.7,2,1.2c1.1,1.1,2.3,2.2,3.4,3.3c0.1,0.1,0.3,0.1,0.4,0.2c0.2,0.1,0.5,0.1,0.5,0.4c0,0.1-0.1,0.4-0.2,0.4
	c-0.2,0-0.5-0.1-0.7-0.1c0,0,0,0-0.1-0.1c-0.4-0.8-1.2-1.1-2-1.4c-0.3-0.1-0.5-0.2-0.4-0.6c0.1-0.2-0.3-0.5-0.6-0.5
	c-0.1,0-0.2,0-0.3,0c-0.4-0.8-1.1-1.3-1.9-1.6c-1.1-0.4-2.2-0.6-3.3-0.8c-1.6-0.2-3.2-0.2-4.7,0.1c-1,0.2-1.9,0.4-2.7,0.9
	c-0.7,0.4-1.3,0.9-1.7,1.5c-0.1,0.2-0.2,0.4-0.2,0.6C11,8.8,11,9,10.8,9.1C10.2,9.7,9.5,10.4,9,11c-0.7,0.8-1.1,1.8-1.2,2.8
	c-0.1,1-0.2,1.9-0.2,2.9c0,1.1,0.4,2,0.9,3c1.1,2.3,2.7,4.3,4.7,5.9c0.7,0.5,1.4,0.8,2.3,0.9c2.4,0.5,4.9,0.5,7.3-0.1
	c0.8-0.2,1.5-0.6,2.2-1.1c2.1-1.6,3.9-3.6,5.3-5.8c0.9-1.3,1.2-2.8,1.1-4.4c-0.1-1.8-0.5-3.6-1-5.3c-0.1-0.4-0.4-0.6-0.7-0.7
	C29.3,9,29,8.8,28.8,8.5c-0.9-0.9-1.8-1.8-2.8-2.7c-0.9-0.8-2-1.2-3.1-1.4c-2.6-0.6-5.3-0.7-7.9-0.1c-1.9,0.5-3.6,1.4-5,2.9
	C9.5,7.6,9.1,8.1,8.6,8.5C8.4,8.7,8.1,9,7.8,9.2c0,0-0.1,0.1-0.1,0.1c-0.6,0-1,0.4-1.2,0.9c-0.7,2.4-1.4,4.7-0.9,7.3
	c0.3,1.4,0.7,2.7,1.4,3.9c0.1,0.2,0.3,0.4,0.4,0.6c0.1,0.1,0.2,0.2,0.3,0.2c0.4-0.1,0.5,0.2,0.7,0.4c0.8,1.3,1.9,2.5,3,3.6
	c0.3,0.3,0.7,0.7,1,1c0.5,0.5,1,0.8,1.7,1c2.9,0.9,5.8,0.9,8.8,0.1c0.6-0.2,1.1-0.5,1.6-0.9c1.2-1.2,2.5-2.3,3.7-3.4
	c1.2-1.1,2.1-2.3,2.7-3.8c0.4-1,1-2,1-3.1c0.1-1,0-2,0-2.9c-0.1-0.9-0.2-1.9-0.4-2.8"/>
<path class="st0" d="M30.2,7.6C29.7,7.8,29.6,8,30,8.4c0.3,0.4,0.6,0.8,1,1.1"/>
<path class="st0" d="M29.5,4.6c-0.4,0.4-0.7,0.8-0.7,1.3c0,0.4,0.2,0.7,0.3,1.1c0,0.1,0.3,0.1,0.4,0.1C30,6.9,30.5,6.6,31,6.4"/>
<path class="st0" d="M17.9,1.7c-0.1,0.1-0.2,0.3-0.3,0.3c-0.3,0.2-0.5,0.3-0.8,0.5c-0.1,0.1-0.3,0.2-0.4,0.2c-0.3,0-0.5,0.1-0.4,0.4
	c-0.1,0-0.2,0-0.3,0.1c-1.6,0.2-3,0.8-4.2,1.8c-0.2,0.1-0.3,0.3-0.4,0.4c0,0,0,0,0.1,0.1c0.3-0.1,0.7-0.3,1-0.4c1-0.5,2-1,3.1-1.2
	c2.7-0.6,5.4-0.5,8.1,0.3C24.6,4.5,26,5.2,27,6.3c0.7,0.7,1.3,1.4,2,2.1c0.1,0.1,0.2,0.3,0.5,0.1c-0.1-0.1-0.1-0.2-0.2-0.3
	c-0.9-1.1-1.9-2.2-3.1-3.1c-0.8-0.7-1.7-1.2-2.7-1.5c-0.7-0.2-1.4-0.4-2.1-0.5c0,0,0-0.1,0-0.1c0-0.3,0-0.3-0.3-0.3
	c-0.1,0-0.2,0-0.3-0.1c-0.4-0.2-0.8-0.4-1.3-0.6"/>
<path class="st0" d="M18.4,29.2C18.4,29.2,18.4,29.2,18.4,29.2c-1.2,0.1-2.3,0-3.5,0c-0.3,0-0.6,0-0.9,0c-0.1,0-0.3,0.1-0.3,0.2
	c-0.1,0.3-0.1,0.4,0.4,0.4c3,0.2,6,0.2,9,0.1c0.2,0,0.4,0,0.3-0.3c0-0.2-0.1-0.4-0.3-0.4c-0.2,0-0.3,0-0.5,0
	C21.2,29.2,19.8,29.2,18.4,29.2z"/>
<path class="st0" d="M10.1,29.7c0.2-0.3,0.5-0.6,0.8-0.9c0.1-0.1,0.1-0.2,0.1-0.3c-0.1,0-0.2-0.1-0.3-0.1c-0.2,0.1-0.4,0.2-0.5,0.3
	c-0.1,0.1-0.2,0.2-0.4,0.3c-0.3,0.2-0.3,0.3-0.3,0.6"/>
<path class="st0" d="M10.9,29.7c0.1,0,0-0.2,0.1-0.2c-0.1,0-0.2,0-0.3,0c-0.1,0-0.1,0.1-0.2,0.2"/>
<path d="M13.2,14.7c1.3,0,2.5-0.5,3.5-1.4c1.3-1.1,1.1-2.7-0.3-3.7c-1.9-1.2-4.7-0.5-5.9,1.5c-0.6,1-0.4,2.2,0.5,2.9
	C11.7,14.5,12.4,14.7,13.2,14.7z"/>
<path class="st0" d="M13.7,2.9c0.1,0.2,0.3,0.2,0.4,0.1c0.6-0.2,1.2-0.5,1.8-0.7c0.1,0,0.1-0.1,0.2-0.2c-0.1-0.3-0.1-0.5-0.3-0.8"/>
<path class="st0" d="M9.5,4.6c0.3,0,0.4,0.2,0.4,0.4c0,0.2,0,0.4-0.1,0.6c0,0.1-0.1,0.2,0,0.3c0.1,0.3,0,0.4-0.2,0.5
	C9.2,6.7,8.9,7,8.5,7.4C8.4,7.6,8.2,7.8,8.3,8.2C8.5,8.1,8.6,8,8.7,7.9c0.3-0.3,0.5-0.5,0.8-0.8c0.4-0.4,0.8-0.8,1.3-1.3
	c0.1-0.1,0.2-0.3,0-0.3c-0.2,0-0.2-0.1-0.3-0.3c0-0.3-0.1-0.6-0.4-0.8"/>
<path class="st0" d="M21.5,1.9c-0.1,0.4-0.1,0.5,0.3,0.6c0.6,0.2,1.1,0.4,1.7,0.5c0.2,0.1,0.3-0.1,0.3-0.2C23.9,2.6,23.9,2.3,24,2"
	/>
<path class="st0" d="M7,26.9C7.1,27,7.2,27,7.3,27c-0.2,0.1-0.3,0.2-0.4,0.3"/>
<path class="st0" d="M6.4,27.9c0.3-0.2,0.7-0.3,1.1-0.5c0.4-0.2,0.4-0.5,0.1-0.8c-0.1-0.1-0.3-0.1-0.4-0.2c-0.1,0-0.2,0.1-0.3,0.1"
	/>
<path class="st0" d="M7.8,7c0.3,0.1,0.5,0,0.4-0.4C8.2,6.6,8,6.5,8,6.5"/>
<path class="st0" d="M4.6,10.5c0.2,0.1,0.3,0.1,0.5,0.2c0.2,0,0.2,0.1,0.2,0.3c0,0.2-0.1,0.5-0.1,0.7c0,0.2,0,0.3,0.3,0.3
	c0.1-0.6,0.2-1.1,0.3-1.6c0,0-0.1-0.2-0.1-0.1c-0.3,0.1-0.6,0-0.9-0.1"/>
<path class="st0" d="M8.7,28.7c0.4-0.2,0.4-0.5,0.3-0.8c0-0.1-0.1-0.2-0.1-0.3c-0.1-0.3-0.2-0.3-0.5-0.2c0,0.1,0.1,0.2,0.1,0.3
	c0.3,0.5,0.3,0.6-0.2,0.9"/>
<path class="st0" d="M12.6,3.5c-0.2,0.2-0.2,0.3,0,0.5c0.3-0.2,0.6-0.3,0.9-0.5c0.1,0,0.2-0.2,0.1-0.3C13.6,3,13.4,3,13.3,2.9"/>
<path class="st0" d="M32.7,23c-0.1-0.1-0.2-0.3-0.3-0.3c-0.1,0-0.2,0.1-0.2,0.2c0.1,0.1,0.2,0.2,0.3,0.3
	C32.4,23.2,32.6,23.1,32.7,23"/>
<path class="st0" d="M27,28.3c-0.1,0.1-0.2,0.2-0.2,0.3c0,0.1,0.1,0.2,0.2,0.2c0.1,0,0.2-0.1,0.2-0.2C27.2,28.5,27.1,28.4,27,28.3z"
	/>
<path d="M9.7,13c0,0.1-0.1,0.2-0.1,0.2c-0.6,2.3-0.3,4.4,0.9,6.4c0,0.1,0.1,0.2,0.2,0.2c0.6,0,1.1,0,1.7,0c0-0.1,0-0.2,0-0.2
	c0-0.1,0.1-0.3,0.1-0.4c0.1,0.1,0.2,0.2,0.3,0.4c0.4,1.2,1.2,2.1,2.3,2.7c2.4,1.3,4.8,1,7.1-0.3c0.8-0.5,1.4-1.1,1.7-2
	c0.1-0.2,0.2-0.4,0.3-0.6c0-0.1,0.1-0.1,0.2-0.1c0.1,0,0.1,0.1,0.2,0.2c0,0.1,0,0.3,0,0.4c0.6,0,1.2,0,1.8,0c0.1,0,0.2-0.1,0.2-0.2
	c0.3-0.7,0.5-1.5,0.8-2.2c0.3-0.8,0.4-1.7,0.4-2.6c0-0.7-0.1-1.4-0.2-2c0-0.2-0.1-0.5-0.1-0.7c0,0-0.1,0-0.1,0c0,0.1,0,0.2-0.1,0.4
	c-0.1,0.7-0.4,1.4-0.9,1.9c-0.8,0.7-1.8,1-2.8,1.1c-1.5,0.1-2.8-0.5-3.9-1.4c-1.1-0.9-1.2-2-0.7-3.3c0.5-1.2,1.6-1.8,2.8-2.1
	c0.4-0.1,0.9-0.1,1.4-0.2c0-0.1,0-0.3,0-0.4c-0.3,0-0.5,0-0.8,0c-1.3,0.1-2.6,0.4-3.8,1.2c-0.1,0-0.2,0-0.3,0
	c-0.8-0.5-1.7-0.9-2.7-1c-0.6-0.1-1.3-0.2-2-0.2c0,0.3,0,0.4,0,0.6c0.1,0,0.3,0,0.4,0c0.8,0,1.6,0.2,2.4,0.5
	c0.9,0.5,1.6,1.1,1.6,2.2c0,0.9-0.3,1.7-0.9,2.3c-0.3,0.3-0.7,0.6-1.1,0.9c-1.2,0.7-2.4,1.2-3.8,0.8c-1.2-0.3-2.1-0.8-2.4-2
	C9.8,13.1,9.8,13.1,9.7,13z"/>
<path class="st0" d="M9.7,14.2c0,0.1,0.1,0.1,0.1,0.1c0.4,1.2,1.3,1.8,2.4,2c1.4,0.3,2.6-0.1,3.8-0.8c0.4-0.2,0.8-0.5,1.1-0.9
	c0.6-0.6,0.9-1.4,0.9-2.3c0-1.1-0.7-1.8-1.6-2.2c-0.7-0.4-1.5-0.5-2.4-0.5c-0.1,0-0.2,0-0.4,0c0-0.2,0-0.4,0-0.6
	c0.7,0.1,1.3,0.1,2,0.2c1,0.1,1.9,0.5,2.7,1c0.1,0.1,0.2,0.1,0.3,0c1.1-0.7,2.4-1.1,3.8-1.2c0.2,0,0.5,0,0.8,0c0,0.2,0,0.3,0,0.4
	c-0.5,0.1-0.9,0.1-1.4,0.2c-1.2,0.3-2.3,0.8-2.8,2.1c-0.5,1.3-0.4,2.4,0.7,3.3c1.1,0.9,2.4,1.5,3.9,1.4c1,0,2-0.3,2.8-1.1
	c0.5-0.5,0.8-1.2,0.9-1.9c0-0.1,0-0.2,0.1-0.4c0,0,0.1,0,0.1,0c0,0.2,0.1,0.5,0.1,0.7c0.1,0.7,0.2,1.4,0.2,2
	c0.1,0.9-0.1,1.8-0.4,2.6c-0.2,0.7-0.5,1.5-0.8,2.2c0,0.1-0.1,0.2-0.2,0.2c-0.6,0-1.2,0-1.8,0c0-0.1,0-0.3,0-0.4
	c0-0.1-0.1-0.2-0.2-0.2c0,0-0.2,0.1-0.2,0.1c-0.1,0.2-0.2,0.4-0.3,0.6c-0.3,0.9-0.9,1.5-1.7,2c-2.3,1.3-4.7,1.6-7.1,0.3
	c-1.1-0.6-1.9-1.4-2.3-2.7c0-0.1-0.2-0.2-0.3-0.4c0,0.1-0.1,0.3-0.1,0.4c0,0.1,0,0.1,0,0.2c-0.6,0-1.1,0-1.7,0
	c-0.1,0-0.1-0.1-0.2-0.2c-1.2-2-1.5-4.2-0.9-6.4C9.6,14.3,9.7,14.3,9.7,14.2z M20.8,17.4c0,0,0,0,0-0.1c0.1-0.4-0.1-0.8-0.5-1
	c-1.1-0.7-2.3-0.8-3.4-0.2c-0.5,0.2-0.7,0.7-0.6,1.2c0,0.1,0,0.1,0,0.2c-0.3,0-0.5,0-0.7,0.1c-1.3,0.3-2.1,1.5-1.6,2.6
	c0.5,1.3,1.4,2.3,2.6,3c0.4,0.2,0.5,0.2,0.8-0.1c0.3-0.4,0.6-0.9,0.9-1.3c0.1-0.1,0.1-0.2,0.2-0.3c0.1,0.2,0.2,0.3,0.3,0.4
	c0.3,0.4,0.7,0.9,1,1.3c0.3,0.3,0.6,0.3,1,0.1c1.2-0.7,2.1-1.7,2.4-3.1c0.2-0.9-0.1-1.7-1-2.2C21.8,17.6,21.3,17.5,20.8,17.4z
	 M11.6,16.8C11.6,16.8,11.6,16.8,11.6,16.8c-0.4,0-0.9,0-1.3,0c-0.2,0-0.3,0.1-0.3,0.2c0,0.3,0,0.6,0,0.9c0,0.2,0.1,0.3,0.3,0.3
	c0.9,0,1.7,0,2.6,0c0.2,0,0.3-0.1,0.3-0.3c0-0.2,0-0.5,0-0.7c0-0.4-0.1-0.4-0.4-0.4C12.4,16.8,12,16.8,11.6,16.8z M25.5,16.8
	C25.5,16.8,25.5,16.8,25.5,16.8c-0.4,0-0.9,0-1.3,0c-0.2,0-0.3,0.1-0.3,0.3c0,0.3,0,0.6,0,0.9c0,0.2,0.1,0.3,0.3,0.3
	c0.9,0,1.7,0,2.6,0c0.2,0,0.3-0.1,0.3-0.3c0-0.3,0-0.6,0-0.9c0-0.2-0.1-0.3-0.3-0.3C26.3,16.8,25.9,16.8,25.5,16.8z M23.5,19.7
	c0.4,0,0.8,0,1.3,0c0.8,0,0.8,0,0.7-0.8c0,0,0,0,0-0.1c-0.6,0-1.2,0-1.7,0c-0.1,0-0.1,0.1-0.2,0.2C23.5,19.2,23.5,19.5,23.5,19.7z
	 M12.5,19.7C12.5,19.7,12.5,19.7,12.5,19.7c0.1,0,0.2,0,0.3,0c0.6,0,0.6,0.2,0.6-0.6c0-0.2-0.1-0.2-0.2-0.2c-0.3,0-0.7,0-1,0
	c-0.6,0-0.7,0-0.6,0.7c0,0.1,0.1,0.2,0.2,0.2C12,19.7,12.3,19.7,12.5,19.7z"/>
<path d="M23.5,14.7c0.1,0,0.3,0,0.5,0c0.9-0.1,1.8-0.4,2.3-1.2c0.9-1.4,0.8-2.6-0.5-3.6c-0.6-0.5-1.3-0.8-2.1-0.9
	C22.3,8.7,21,9,20,10.1c-0.9,1-0.9,2.4,0,3.2C21,14.2,22.1,14.7,23.5,14.7z"/>
<path d="M25.7,21c-0.6,0-1.1,0-1.6,0c-0.1,0-0.2,0.1-0.3,0.2c-1,1-2.2,1.7-3.5,2c-2.6,0.7-4.8,0-6.7-1.8c-0.3-0.3-0.5-0.4-0.9-0.4
	c-0.3,0-0.6,0-0.9,0c0,0,0,0.1,0,0.1c1.4,1.6,3.1,2.7,5.2,3C20.4,24.5,23.4,23.8,25.7,21z"/>
<path class="st0" d="M28.5,17.1c-0.1,0.7-0.2,1.3-0.4,2c-0.1,0.6-0.2,1.2-0.4,1.8c0,0.2-0.1,0.4-0.2,0.6c-1.1,1.3-2.2,2.5-3.5,3.5
	c-0.8,0.7-1.8,0.9-2.8,1.1c-1.6,0.2-3.2,0.3-4.9,0c-1-0.2-2-0.6-2.7-1.4c-0.8-0.8-1.7-1.5-2.4-2.4c-2.3-2.6-3.2-5.6-2.2-9
	c0.4-1.4,1.3-2.5,2.5-3.3c0.2-0.1,0.3-0.2,0.1-0.5c0-0.1,0-0.2,0-0.3c0.2-0.3,0.5-0.6,0.7-0.9c0.5-0.9,1.3-1.3,2.2-1.6
	c0.7-0.2,1.5-0.4,2.2-0.4c1.7-0.1,3.4-0.1,5.1,0.3c0.8,0.2,1.6,0.4,2.3,0.7c0.5,0.1,0.8,0.5,1,0.9c0,0.1,0,0.2,0,0.3
	c-0.2,0.4-0.3,0.8-0.5,1.2c0,0.1-0.1,0.1-0.2,0.2c0-0.1-0.1-0.2-0.1-0.3c0-0.6,0-1.2,0-1.9c0-0.3-0.1-0.4-0.3-0.4
	c-2.6-0.6-5.3-0.8-8-0.5c-0.9,0.1-1.7,0.4-2.6,0.6c-0.2,0.1-0.3,0.2-0.3,0.4c0,0.5,0,1,0,1.6c0,0.2,0,0.2-0.2,0.3
	c-1.4,0.5-2.5,1.5-3.1,2.9c-0.8,1.7-1,3.6-0.6,5.4c0.3,1.5,1,2.9,2.1,4c0.6,0.7,1.3,1.3,1.9,1.9c1.2,1.1,2.6,1.7,4.1,1.9
	c1.4,0.2,2.8,0.1,4.2-0.2c1.4-0.3,2.6-1.1,3.6-2.2c0.5-0.5,1-1,1.6-1.6c0.4-0.4,0.6-0.8,0.7-1.3c0.3-1,0.6-2,0.8-3
	c0-0.1,0.1-0.3,0.1-0.4C28.4,17.1,28.4,17.1,28.5,17.1z"/>
<path class="st0" d="M23.7,15.5c-1.4,0-2.6-0.5-3.5-1.4c-1-0.8-1-2.2,0-3.2c1-1.1,2.3-1.4,3.8-1.2c0.8,0.1,1.5,0.4,2.1,0.9
	c1.3,1,1.4,2.2,0.5,3.6c-0.5,0.8-1.4,1.1-2.3,1.2C24,15.5,23.8,15.5,23.7,15.5z M23.6,11.2C23.6,11.1,23.6,11.1,23.6,11.2
	c-0.6,0-1.2,0.1-1.8,0.3c-1,0.3-1.3,1.4-0.6,2.2c0.4,0.4,0.8,0.8,1.3,1c1.7,0.7,3.2-0.1,3.6-1.6c0.2-0.7-0.1-1.2-0.7-1.5
	C24.8,11.2,24.2,11.2,23.6,11.2z"/>
<path class="st0" d="M13.4,15.5c-0.8,0-1.6-0.2-2.2-0.7c-0.9-0.7-1.1-1.9-0.5-2.9c1.2-2,4-2.7,5.9-1.5c1.4,0.9,1.6,2.5,0.3,3.7
	C15.9,15,14.8,15.5,13.4,15.5z M14.2,11.1c-0.6,0.1-1.2,0.2-1.7,0.4c-1,0.3-1.3,1.3-0.7,2.2c0.3,0.5,0.7,0.8,1.3,1
	c1.3,0.5,3.1-0.1,3.6-1.4c0.4-0.9,0.1-1.6-0.8-1.9C15.3,11.3,14.8,11.2,14.2,11.1z"/>
<path class="st0" d="M25.9,21.9c-2.3,2.7-5.3,3.5-8.6,3.1c-2.2-0.3-3.8-1.4-5.2-3c0,0,0-0.1,0-0.1c0.3,0,0.6,0,0.9,0
	c0.4,0,0.6,0.1,0.9,0.4c1.9,1.8,4.1,2.5,6.7,1.8c1.3-0.4,2.6-1,3.5-2c0.1-0.1,0.2-0.1,0.3-0.2C24.8,21.9,25.3,21.9,25.9,21.9z"/>
<path class="st0" d="M28.3,20.7c0-0.2,0.1-0.5,0.1-0.7c0.1-0.5,0.2-0.9,0.4-1.4c0.4-1.3,0.4-2.7,0.2-4c-0.2-1.1-0.4-2.1-0.9-3.1
	c-0.4-0.8-1-1.4-1.8-1.8c-0.2-0.1-0.2-0.2-0.1-0.3c0.1-0.2,0.2-0.1,0.3-0.1c1.3,0.7,2.2,1.6,2.6,3c0.6,2.1,0.9,4.3,0.3,6.4
	c-0.1,0.5-0.3,0.9-0.5,1.4c-0.1,0.2-0.3,0.4-0.4,0.6C28.4,20.8,28.3,20.8,28.3,20.7z"/>
<path class="st0" d="M3,24c0.4-0.8,1.7-1.9,2.5-2.1c0,0.1,0.1,0.2,0.1,0.2c0.5-0.1,0.9,0.3,1.3,0.5c-0.3,0.1-0.6,0.2-0.9,0.3
	c0,0,0.1-0.1,0.1-0.1c-0.2-0.1-0.4-0.2-0.5-0.4c-0.2-0.3-0.4,0-0.6,0.1c-0.2,0.1-0.3,0.2-0.2,0.4C4.9,23,5,23.1,5.1,23.2
	c0.3,0.6,0.4,0.6,1,0.3c0.3-0.1,0.5-0.3,0.7-0.4c0.2-0.1,0.4,0,0.5,0.2c0.1,0.4,0.2,0.4,0.6,0.3c0.1,0,0.2,0,0.2,0.1
	c0.1,0.1,0.1,0.3,0.2,0.5c-0.3,0-0.6,0.2-0.9,0c-0.3-0.2-0.6,0-0.8,0.2c-0.2,0.2-0.5,0.4-0.8,0.6c-0.1-0.7-0.3-1.3-1-1.5"/>
<path class="st0" d="M23.3,7.7c0,0.2,0,0.3,0,0.4c-3.2,0.6-6.3,0.6-9.4,0c0-0.4,0-0.4,0.3-0.3c1.2,0.1,2.4,0.3,3.6,0.4
	c1.7,0.1,3.4-0.1,5.1-0.4C23,7.8,23.1,7.7,23.3,7.7z"/>
<path class="st0" d="M4.9,24.2c0.4,0.2,0.6,0.9,0.3,1.3"/>
<path class="st0" d="M25.8,32c-0.4-0.6-0.8-1.1-1.3-1.8c0.3-0.1,0.6-0.2,1-0.3c0.1,0,0.2,0,0.2,0.1c0.3,0.5,0.5,1,0.8,1.6"/>
<path class="st0" d="M11.7,30c0-0.1,0.2-0.1,0.2-0.1c0.3,0.1,0.5,0.2,0.8,0.3c-0.4,0.6-0.8,1.1-1.2,1.7"/>
<path class="st0" d="M2.9,20.7c0.5-0.4,1-0.7,1.6-1c0.2,0.2,0.1,0.6,0.4,0.7c-0.8,0.4-1.7,0.8-2.5,1.3"/>
<path class="st0" d="M6.9,7.8C7,7.8,7.1,7.9,7.1,8c0,0.1-0.1,0.2-0.2,0.3C6.7,8.4,6.4,8.5,6.2,8.6"/>
<path class="st0" d="M29.4,26.6c-0.1-0.1-0.1-0.2-0.1-0.3c0-0.7,0.1-0.7,0.8-0.5c0.4,0.2,0.8,0.4,1.2,0.6"/>
<path class="st0" d="M3.2,21.6C3.8,21.4,4.4,21.2,5,21c0.3-0.1,0.4,0,0.5,0.3c-0.6,0.3-1.2,0.6-1.9,1"/>
<path class="st0" d="M22.6,32.1c0-0.5-0.1-0.8-0.1-1.2c0,0,0.1-0.1,0.1-0.1c0.1,0,0.2-0.1,0.3-0.1c0.3-0.1,0.4-0.1,0.5,0.2
	c0.1,0.2,0.2,0.4,0.4,0.6"/>
<path class="st0" d="M13.4,31.5c0.4-0.2,0.6-0.5,0.6-0.9c0.3,0.1,0.5,0.2,0.7,0.3c0.1,0,0.1,0.1,0.1,0.2"/>
<path class="st0" d="M33.7,22.3c-0.4-0.1-0.8-0.3-1.2-0.4c0.2-0.6,0.2-0.6,0.8-0.4"/>
<path class="st0" d="M16.3,7.3c1.5,0,3,0,4.4,0c0,0,0,0.1,0,0.1C19.2,7.5,17.8,7.5,16.3,7.3C16.3,7.3,16.3,7.3,16.3,7.3z"/>
<path class="st0" d="M5.7,25.4c0.5,0,1-0.5,1.6-0.5c0,0,0,0.1,0,0.1c-0.7,0.4-1.4,0.8-2.1,1.3"/>
<path class="st0" d="M17.8,9c0.6,0,1.2,0,1.8,0C19.1,9.3,18.4,9.4,17.8,9z"/>
<path class="st0" d="M20,31.6c-0.3-0.1-0.5-0.4-0.4-0.7c0.3,0.1,0.6,0.2,0.9,0.3"/>
<path d="M18.2,2c0,0.3,0,0.7,0,1c0.3,0,0.5,0,0.7,0c0.1-0.3,0.2-0.6,0.2-0.9c-0.1-0.2-0.3-0.4-0.5-0.6"/>
<path d="M23.6,11.2c0.6,0,1.2,0.1,1.8,0.3c0.6,0.3,0.9,0.9,0.7,1.5c-0.4,1.5-2,2.3-3.6,1.6c-0.5-0.2-0.9-0.6-1.3-1
	c-0.7-0.8-0.4-1.9,0.6-2.2C22.4,11.3,23,11.2,23.6,11.2C23.6,11.1,23.6,11.1,23.6,11.2z M21.6,12.8c0.3,0,0.6-0.2,0.6-0.4
	c0-0.2-0.3-0.5-0.5-0.5c-0.2,0-0.4,0.2-0.4,0.5C21.3,12.7,21.4,12.8,21.6,12.8z"/>
<path d="M14.2,11.1c0.6,0.1,1.1,0.2,1.7,0.3c0.9,0.3,1.2,1,0.8,1.9c-0.5,1.3-2.3,1.9-3.6,1.4c-0.5-0.2-0.9-0.5-1.3-1
	c-0.6-0.9-0.3-1.9,0.7-2.2C13,11.3,13.6,11.2,14.2,11.1z M12.3,12.8c0.3,0,0.6-0.2,0.6-0.4c0-0.2-0.2-0.4-0.4-0.4
	c-0.3,0-0.5,0.3-0.5,0.6C12,12.7,12.1,12.8,12.3,12.8z"/>
<path d="M27.9,16.5c0,0-0.1,0-0.1,0c0,0.1-0.1,0.3-0.1,0.4c-0.3,1-0.6,2-0.8,3c-0.1,0.5-0.4,0.9-0.7,1.3c-0.5,0.5-1.1,1-1.6,1.6
	c-1,1-2.2,1.8-3.6,2.2c-1.4,0.3-2.8,0.4-4.2,0.2c-1.6-0.2-3-0.8-4.1-1.9c-0.7-0.6-1.3-1.3-1.9-1.9c-1.1-1.1-1.8-2.5-2.1-4
	c-0.4-1.8-0.2-3.7,0.6-5.4c0.6-1.4,1.7-2.4,3.1-2.9c0.2-0.1,0.2-0.1,0.2-0.3c0-0.5,0-1,0-1.6c0-0.2,0.1-0.4,0.3-0.4
	c0.9-0.2,1.7-0.5,2.6-0.6c2.7-0.3,5.3,0,8,0.5c0.3,0.1,0.3,0.2,0.3,0.4c0,0.6,0,1.2,0,1.9c0,0.1,0,0.2,0.1,0.3
	c0.1-0.1,0.2-0.1,0.2-0.2c0.2-0.4,0.4-0.8,0.5-1.2c0-0.1,0-0.2,0-0.3c-0.2-0.4-0.5-0.8-1-0.9c-0.8-0.2-1.5-0.5-2.3-0.7
	c-1.7-0.4-3.4-0.4-5.1-0.3c-0.7,0-1.5,0.2-2.2,0.4c-0.9,0.3-1.7,0.7-2.2,1.6c-0.2,0.3-0.5,0.6-0.7,0.9c0,0.1-0.1,0.2,0,0.3
	c0.2,0.2,0.1,0.3-0.1,0.5c-1.2,0.9-2.1,1.9-2.5,3.3c-1,3.4-0.1,6.4,2.2,9c0.7,0.9,1.6,1.6,2.4,2.4c0.8,0.8,1.7,1.2,2.7,1.4
	c1.6,0.3,3.2,0.2,4.9,0c1-0.1,2-0.4,2.8-1.1c1.3-1,2.4-2.3,3.5-3.5c0.1-0.2,0.2-0.4,0.2-0.6c0.1-0.6,0.3-1.2,0.4-1.8
	C27.6,17.8,27.8,17.2,27.9,16.5z"/>
<path d="M28.1,19.9c0,0,0.1,0,0.1,0.1c0.1-0.2,0.3-0.4,0.4-0.6c0.2-0.5,0.4-0.9,0.5-1.4c0.6-2.2,0.4-4.3-0.3-6.4
	c-0.4-1.4-1.3-2.4-2.6-3c-0.1-0.1-0.2-0.1-0.3,0.1c-0.1,0.2-0.1,0.3,0.1,0.3c0.8,0.4,1.3,1.1,1.8,1.8c0.6,1,0.8,2,0.9,3.1
	c0.2,1.4,0.2,2.7-0.2,4c-0.1,0.4-0.3,0.9-0.4,1.4C28.2,19.4,28.2,19.6,28.1,19.9z"/>
<path d="M11.8,16.5c0.4,0,0.8,0,1.2,0c0.4,0,0.4,0.1,0.4,0.4c0,0.2,0,0.5,0,0.7c0,0.2-0.1,0.3-0.3,0.3c-0.9,0-1.7,0-2.6,0
	c-0.2,0-0.3-0.1-0.3-0.3c0-0.3,0-0.6,0-0.9c0-0.2,0.1-0.2,0.3-0.2C10.9,16.5,11.4,16.5,11.8,16.5C11.8,16.5,11.8,16.5,11.8,16.5z"/>
<path d="M25.7,16.5c0.4,0,0.8,0,1.2,0c0.2,0,0.3,0.1,0.3,0.3c0,0.3,0,0.6,0,0.9c0,0.2-0.1,0.3-0.3,0.3c-0.9,0-1.7,0-2.6,0
	c-0.2,0-0.3-0.1-0.3-0.3c0-0.3,0-0.6,0-0.9c0-0.2,0.1-0.3,0.3-0.3C24.8,16.5,25.2,16.5,25.7,16.5C25.7,16.5,25.7,16.5,25.7,16.5z"/>
<path d="M23.7,19.4c0-0.3,0-0.5,0-0.7c0-0.1,0.1-0.2,0.2-0.2c0.6,0,1.2,0,1.7,0c0,0.1,0,0.1,0,0.1c0.1,0.8,0.1,0.8-0.7,0.8
	C24.5,19.4,24.1,19.4,23.7,19.4z"/>
<path d="M12.7,19.4c-0.2,0-0.5,0-0.7,0c-0.1,0-0.2-0.1-0.2-0.2c-0.1-0.6-0.1-0.7,0.6-0.7c0.3,0,0.7,0,1,0c0.2,0,0.2,0,0.2,0.2
	c0,0.8,0.1,0.6-0.6,0.6C13,19.4,12.9,19.4,12.7,19.4C12.7,19.4,12.7,19.4,12.7,19.4z"/>
<path class="st0" d="M18.6,1.5c0.2,0.3,0.4,0.4,0.5,0.6C19.1,2.4,19,2.7,18.9,3c-0.2,0-0.4,0-0.7,0c0-0.3,0-0.7,0-1"/>
<path class="st0" d="M14.8,18.9c0-0.1,0.1-0.3,0.1-0.4c0.4-0.5,1-0.9,1.7-0.8c0.1,0,0.3,0.1,0.4,0.1c0.2,0.1,0.4,0.2,0.5,0.3
	c0.9,0.6,1.9,0.5,2.7-0.1c0.6-0.5,1.9-0.3,2.4,0.6c0,0.1,0,0.1,0.1,0.2c-0.8-0.3-1.6-0.3-2.3-0.2c-1.2,0.2-2.4,0.2-3.6,0
	c-0.4-0.1-0.8,0-1.2,0C15.4,18.7,15.1,18.8,14.8,18.9C14.8,18.9,14.8,18.9,14.8,18.9z"/>
<path class="st0" d="M21.6,12.8c-0.2,0-0.3-0.1-0.3-0.4c0-0.3,0.2-0.5,0.4-0.5c0.2,0,0.5,0.3,0.5,0.5C22.2,12.6,21.9,12.8,21.6,12.8
	z"/>
<path class="st0" d="M12.3,12.8c-0.2,0-0.3-0.1-0.3-0.3c0-0.3,0.2-0.5,0.5-0.6c0.2,0,0.4,0.2,0.4,0.4C12.9,12.6,12.6,12.8,12.3,12.8
	z"/>
<path d="M32.8,25.1c0.5-0.1,1-0.1,1.4-0.5c0.3-0.3,0.3-0.7,0.1-1.2c-0.2-0.4-0.5-0.5-1-0.4c-0.2,0.1-0.5,0.2-0.7,0.4
	c-0.3,0.3-0.3,0.8,0,1.1C32.8,24.7,33,24.8,32.8,25.1z"/>
<path d="M32.3,21c0.4,0.1,0.8,0.3,1.2,0.4c0,0,0.1,0,0.2-0.1c0.2-0.3,0.2-0.5-0.2-0.6c-0.1,0-0.2-0.1-0.3-0.1
	C32.6,20.4,32.6,20.4,32.3,21z"/>
</svg>
